<svg xmlns="http://www.w3.org/2000/svg" xmlns:xlink="http://www.w3.org/1999/xlink" width="1000" height="1000" viewBox="0 0 1000 1000" fill="none"><defs><rect id="path_0" x="0" y="0" width="1000" height="1000" /><radialGradient id="linear_0" cx="50%" cy="50%" fx="50%" fy="50%" r="0.5" gradientTransform="translate(0.5 0.5) scale(1 1) rotate(90) scale(1 1) translate(-0.5 -0.5)" ><stop offset="0" stop-color="#424242" stop-opacity="1" /><stop offset="0.6452" stop-color="#1C1A1A" stop-opacity="1" /><stop offset="1" stop-color="#000000" stop-opacity="1" /></radialGradient></defs><g opacity="1" transform="translate(0 0)  rotate(0 500 500)"><rect fill="#FFFFFF" opacity="1" transform="translate(0 0)  rotate(0 500 500)" x="0" y="0" width="1000" height="1000" rx="0" /><mask id="bg-mask-0" fill="white"><use xlink:href="#path_0"></use></mask><g mask="url(#bg-mask-0)" ><path id="背景" fill-rule="evenodd" fill="url(#linear_0)" transform="translate(0 0)  rotate(0 500 500)" opacity="1" d="M0,1000L1000,1000L1000,0L0,0L0,1000Z " /><path id="圆圈" fill-rule="evenodd" style="fill:#FAFAFA" transform="translate(200 200)  rotate(0 300 300)" opacity="1" d="M300 0C134.31 0 0 134.31 0 300C0 465.69 134.31 600 300 600C465.69 600 600 465.69 600 300C600 134.31 465.69 0 300 0Z M300 50C161.93 50 50 161.93 50 300C50 438.07 161.93 550 300 550C438.07 550 550 438.07 550 300C550 161.93 438.07 50 300 50Z " /><g opacity="1" transform="translate(267.00000000000017 162.99999999999994)  rotate(0 295.4596996398852 303.4870198278331)"><path id="路径 1" fill-rule="evenodd" style="fill:#66A84C" transform="translate(181.03202670260777 -5.784422368223602)  rotate(43.33062791848938 114.42767293727739 309.2714421960567)" opacity="1" d="M21.08 0C17.02 0 5.11 5.67 0 8.11C16.78 42.64 55.93 123.21 65.66 166.98C69.1152 182.523 77.1692 209.106 85.8296 237.69C101.557 289.601 119.285 348.114 115.1 359.09C108.62 376.11 96.62 465.31 86.56 510.29C83.07 525.9 78.93 543.52 77.9 550.59C75.9 564.35 70.57 595.45 70.57 595.45C73.45 629.51 98.32 617.42 104.8 611.75C111.29 606.07 121.71 593.74 127.07 566.74C129.33 555.33 131.35 542.73 135.92 495.93C140.54 448.56 147.1 420.35 150.77 410.16C158.07 389.89 155.63 385.03 173.47 329.91C191.3 274.79 212.38 89.98 226.97 84.3C236.063 80.768 210.505 79.7509 188.987 78.8945C187.597 78.8392 186.225 78.7846 184.88 78.73C183.71 78.68 182.57 78.64 181.45 78.59C173.05 78.23 166.18 77.85 163.73 77.28C163.224 77.0268 164.68 76.8003 166.816 76.4681C171.093 75.803 178.094 74.7142 177.52 72.14C177.05 70.0229 177.81 65.1026 178.708 59.2849L178.708 59.2845C180.904 45.0691 183.927 25.4962 171.85 28.37C154.82 32.42 142.34 29.59 136.99 28.37C136.99 19.45 132.13 12.16 130.51 8.11C129.434 5.42903 122 6.28875 114.275 7.18208C110.302 7.64159 106.252 8.11 102.95 8.11C93.22 8.11 90.79 17.83 91.6 21.08C92.41 24.32 94.84 67.28 98.89 69.71C102.95 72.14 104.98 139.48 105.85 168.34C94.96 138.41 83.98 109.85 81.06 98.89C74.57 74.57 25.13 0 21.08 0Z" /><path  id="路径 1" style="stroke:#1F1D1D; stroke-width:5; stroke-opacity:1; stroke-dasharray:0 0" transform="translate(181.03202670260777 -5.784422368223602)  rotate(43.33062791848938 114.42767293727739 309.2714421960567)" d="M177.52,72.14Z M181.45,78.59C182.8,79.27 184.12,79.09 184.88,78.73C183.71,78.68 182.57,78.64 181.45,78.59Z M177.52,72.14C175.9,64.85 188.87,24.32 171.85,28.37C154.82,32.42 142.34,29.59 136.99,28.37C136.99,37.29 141.85,200.22 130.51,254.53C127.26,274.79 119.16,355.85 115.1,359.09C108.62,376.11 96.62,465.31 86.56,510.29C83.07,525.9 78.93,543.52 77.9,550.59C75.9,564.35 70.57,595.45 70.57,595.45C73.45,629.51 98.32,617.42 104.8,611.75C111.29,606.07 121.71,593.74 127.07,566.74C129.33,555.33 131.35,542.73 135.92,495.93C140.54,448.56 147.1,420.35 150.77,410.16C158.07,389.89 155.63,385.03 173.47,329.91C191.3,274.79 212.38,89.98 226.97,84.3C236.65,80.54 207.06,79.63 184.88,78.73C184.12,79.09 182.8,79.27 181.45,78.59C173.05,78.23 166.18,77.85 163.73,77.28C162.21,76.52 178.38,76 177.52,72.14Z M21.08,0C17.02,0 5.11,5.67 0,8.11C16.78,42.64 55.93,123.21 65.66,166.98C75.39,210.75 121.59,342.07 115.1,359.09C119.16,355.85 127.26,274.79 130.51,254.53C132.29,243.39 119.14,204.84 105.85,168.34C94.96,138.41 83.98,109.85 81.06,98.89C74.57,74.57 25.13,0 21.08,0Z M130.51,254.53C141.85,200.22 136.99,37.29 136.99,28.37C136.99,19.45 132.13,12.16 130.51,8.11C128.88,4.05 112.67,8.11 102.95,8.11C93.22,8.11 90.79,17.83 91.6,21.08C92.41,24.32 94.84,67.28 98.89,69.71C102.95,72.14 104.98,139.48 105.85,168.34C119.14,204.84 132.29,243.39 130.51,254.53Z M163.73,77.28C160.33,127.54 152.39,244.8 150.77,249.66C149.15,254.53 143.47,369.63 136.99,372.87 M162.93,77.01C163.09,77.1 163.36,77.19 163.73,77.28 " /><path id="路径 1" fill-rule="evenodd" style="fill:#F0F7ED" transform="translate(128.5982627573595 324.21936748591514)  rotate(46.2356234775572 34.35956539480244 116.78616408832669)" opacity="1" d="M17.96,69.84C14.83,93.16 10.38,119.74 9.46,130.3C7.67,150.85 0.96,200.77 0.96,200.77C-1.39,216.96 0.83,224.44 4.98,228.68C16.83,240.76 33.66,227.41 37.71,221.5C43.51,213.03 48.15,195.88 52.95,155.57C54.98,138.54 56.79,119.73 60.88,49.85C61.79,34.28 67.69,29.64 68.72,16.82C56.15,-10.77 34.25,1.71 25.96,11.3C23.61,33.48 20.2,53.16 17.96,69.84Z " /><path  id="路径 1" style="stroke:#1F1D1D; stroke-width:1; stroke-opacity:1; stroke-dasharray:0 0" transform="translate(128.5982627573595 324.21936748591514)  rotate(46.2356234775572 34.35956539480244 116.78616408832669)" d="M17.96,69.84C14.83,93.16 10.38,119.74 9.46,130.3C7.67,150.85 0.96,200.77 0.96,200.77C-1.39,216.96 0.83,224.44 4.98,228.68C16.83,240.76 33.66,227.41 37.71,221.5C43.51,213.03 48.15,195.88 52.95,155.57C54.98,138.54 56.79,119.73 60.88,49.85C61.79,34.28 67.69,29.64 68.72,16.82C56.15,-10.77 34.25,1.71 25.96,11.3C23.61,33.48 20.2,53.16 17.96,69.84Z " /><path id="路径 2" fill-rule="evenodd" style="fill:#F7F7F7" transform="translate(281.99999999999983 12.000000000000057)  rotate(0 71.15322377168448 152.81740903528757)" opacity="0.8" d="M79.1 155C88.6 140 124.69 41.76 138.1 0C138.08 0.065 138.33 0.065 138.46 0.04875C138.59 0.0325 138.6 0 138.1 0L142.1 0C146.1 0 89.33 147.37 82.1 157C79.1 161 26.1 270 24.6 273.5C23.42 276.26 14.45 290.85 10.1 297C3.77 303.3 -7.4 313.5 7.1 295.5C21.6 277.5 67.35 173.56 79.1 155Z" /><path id="路径 3" fill-rule="evenodd" style="fill:#000000" transform="translate(356.3993069069259 155.33818871845853)  rotate(0 53.814696637031375 53.68383671966702)" opacity="0.51" d="M0.1,107.16C-1.96,110 28.04,83.06 56.1,55.16C82.45,28.97 106.87,1.86 107.6,0.16C109.1,-3.34 51.41,50.85 26.1,74.66L31.6,41.16C23.2,60.96 4.1,101.66 0.1,107.16Z " /><path id="路径 4" fill-rule="evenodd" style="fill:#F5F5F5" transform="translate(404.0613681179081 84.00000000000006)  rotate(0 36.7073553676704 47.20230730239263)" opacity="0.8" d="M46.44,36.5C46.44,43.5 8.44,84 0.94,93C-6.56,102 32.94,65.5 46.44,47.5C59.94,29.5 76.44,0 72.94,0C64.99,8.85 46.44,29.5 46.44,36.5Z " /><path id="路径 5" fill-rule="evenodd" style="fill:#000000" transform="translate(361.5439770039556 172.00000000000006)  rotate(0 84.1599910935539 79.72348513627036)" opacity="0.37" d="M115.46 74.5C125.96 67 152.46 48 157.46 46.5C162.46 45 163.96 43 167.96 42.5C171.96 42 141.96 12.56 128.46 0L125.46 3C135.5 14.19 158.79 40.55 163.88 41.53C158.36 43.08 125.46 55.32 78.96 94C25.46 138.5 14.5 145.5 4 154C-2.09 158.94 -0.22 160.26 3 159C5.33 158.09 7.99 153.84 10.46 152.5C38.81 131.35 104.96 82 115.46 74.5Z" /><path id="路径 6" fill-rule="evenodd" style="fill:#F0F0F0" transform="translate(316.49999999999983 161.00000000000006)  rotate(0 75 70.5)" opacity="0.8" d="M76.5,75C61,91 36.85,109.9 26.5,118L0,141C8.7,135.86 35.5,118 61.5,94.5C87.5,71 131.25,21.3 150,0C133.76,16.5 92,59 76.5,75Z " /></g></g></g></svg>